<?xml version="1.0" encoding="UTF-8" standalone="no"?>
<!DOCTYPE svg PUBLIC "-//W3C//DTD SVG 1.1//EN"
 "http://www.w3.org/Graphics/SVG/1.1/DTD/svg11.dtd">
<!-- Generated by graphviz version 2.40.1 (20161225.0304)
 -->
<!-- Title: dependencies Pages: 1 -->
<svg width="703pt" height="284pt"
 viewBox="0.00 0.00 703.00 284.00" xmlns="http://www.w3.org/2000/svg" xmlns:xlink="http://www.w3.org/1999/xlink">
<g id="graph0" class="graph" transform="scale(1 1) rotate(0) translate(4 280)">
<title>dependencies</title>
<polygon fill="#ffffff" stroke="transparent" points="-4,4 -4,-280 699,-280 699,4 -4,4"/>
<text text-anchor="start" x="326.5091" y="-42.4" font-family="sans-serif" font-weight="bold" font-size="14.00" fill="#000000">Legend</text>
<polygon fill="#ffffb3" stroke="transparent" points="113.5,-10 113.5,-30 133.5,-30 133.5,-10 113.5,-10"/>
<text text-anchor="start" x="137.129" y="-15.4" font-family="sans-serif" font-size="14.00" fill="#000000"> &#160;Declarations</text>
<polygon fill="#8dd3c7" stroke="transparent" points="226.5,-10 226.5,-30 246.5,-30 246.5,-10 226.5,-10"/>
<text text-anchor="start" x="250.2251" y="-15.4" font-family="sans-serif" font-size="14.00" fill="#000000"> &#160;Module</text>
<polygon fill="#80b1d3" stroke="transparent" points="312.5,-10 312.5,-30 332.5,-30 332.5,-10 312.5,-10"/>
<text text-anchor="start" x="336.2812" y="-15.4" font-family="sans-serif" font-size="14.00" fill="#000000"> &#160;Bootstrap</text>
<polygon fill="#fdb462" stroke="transparent" points="409.5,-10 409.5,-30 429.5,-30 429.5,-10 409.5,-10"/>
<text text-anchor="start" x="433.1732" y="-15.4" font-family="sans-serif" font-size="14.00" fill="#000000"> &#160;Providers</text>
<polygon fill="#fb8072" stroke="transparent" points="505.5,-10 505.5,-30 525.5,-30 525.5,-10 505.5,-10"/>
<text text-anchor="start" x="529.2258" y="-15.4" font-family="sans-serif" font-size="14.00" fill="#000000"> &#160;Exports</text>
<g id="clust1" class="cluster">
<title>cluster_AppModule</title>
<polygon fill="none" stroke="#000000" stroke-dasharray="1,5" points="8,-70 8,-268 687,-268 687,-70 8,-70"/>
</g>
<g id="clust2" class="cluster">
<title>cluster_AppModule_declarations</title>
<polygon fill="none" stroke="#000000" points="16,-78 16,-130 679,-130 679,-78 16,-78"/>
</g>
<g id="clust10" class="cluster">
<title>cluster_AppModule_bootstrap</title>
<polygon fill="none" stroke="#000000" points="292,-208 292,-260 416,-260 416,-208 292,-208"/>
</g>
<!-- AppComponent -->
<g id="node1" class="node">
<title>AppComponent</title>
<polygon fill="#ffffb3" stroke="#000000" points="670.9399,-122 565.0601,-122 565.0601,-86 670.9399,-86 670.9399,-122"/>
<text text-anchor="middle" x="618" y="-99.8" font-family="Times,serif" font-size="14.00" fill="#000000">AppComponent</text>
</g>
<!-- AppModule -->
<g id="node6" class="node">
<title>AppModule</title>
<polygon fill="#8dd3c7" stroke="#000000" points="395.6571,-187 392.6571,-191 371.6571,-191 368.6571,-187 312.3429,-187 312.3429,-151 395.6571,-151 395.6571,-187"/>
<text text-anchor="middle" x="354" y="-164.8" font-family="Times,serif" font-size="14.00" fill="#000000">AppModule</text>
</g>
<!-- AppComponent&#45;&gt;AppModule -->
<g id="edge1" class="edge">
<title>AppComponent&#45;&gt;AppModule</title>
<path fill="none" stroke="#000000" d="M618,-122.2843C618,-143.3211 618,-175 618,-175 618,-175 405.8316,-175 405.8316,-175"/>
<polygon fill="#000000" stroke="#000000" points="405.8316,-171.5001 395.8316,-175 405.8315,-178.5001 405.8316,-171.5001"/>
</g>
<!-- CluesComponent -->
<g id="node2" class="node">
<title>CluesComponent</title>
<polygon fill="#ffffb3" stroke="#000000" points="547.719,-122 434.281,-122 434.281,-86 547.719,-86 547.719,-122"/>
<text text-anchor="middle" x="491" y="-99.8" font-family="Times,serif" font-size="14.00" fill="#000000">CluesComponent</text>
</g>
<!-- CluesComponent&#45;&gt;AppModule -->
<g id="edge2" class="edge">
<title>CluesComponent&#45;&gt;AppModule</title>
<path fill="none" stroke="#000000" d="M491,-122.0225C491,-139.3734 491,-163 491,-163 491,-163 405.8489,-163 405.8489,-163"/>
<polygon fill="#000000" stroke="#000000" points="405.849,-159.5001 395.8489,-163 405.8489,-166.5001 405.849,-159.5001"/>
</g>
<!-- OptionsComponent -->
<g id="node3" class="node">
<title>OptionsComponent</title>
<polygon fill="#ffffb3" stroke="#000000" points="416.6652,-122 291.3348,-122 291.3348,-86 416.6652,-86 416.6652,-122"/>
<text text-anchor="middle" x="354" y="-99.8" font-family="Times,serif" font-size="14.00" fill="#000000">OptionsComponent</text>
</g>
<!-- OptionsComponent&#45;&gt;AppModule -->
<g id="edge3" class="edge">
<title>OptionsComponent&#45;&gt;AppModule</title>
<path fill="none" stroke="#000000" d="M354,-122.1061C354,-122.1061 354,-140.991 354,-140.991"/>
<polygon fill="#000000" stroke="#000000" points="350.5001,-140.9909 354,-150.991 357.5001,-140.991 350.5001,-140.9909"/>
</g>
<!-- QuizComponent -->
<g id="node4" class="node">
<title>QuizComponent</title>
<polygon fill="#ffffb3" stroke="#000000" points="273.0452,-122 164.9548,-122 164.9548,-86 273.0452,-86 273.0452,-122"/>
<text text-anchor="middle" x="219" y="-99.8" font-family="Times,serif" font-size="14.00" fill="#000000">QuizComponent</text>
</g>
<!-- QuizComponent&#45;&gt;AppModule -->
<g id="edge4" class="edge">
<title>QuizComponent&#45;&gt;AppModule</title>
<path fill="none" stroke="#000000" d="M219,-122.0225C219,-139.3734 219,-163 219,-163 219,-163 302.0252,-163 302.0252,-163"/>
<polygon fill="#000000" stroke="#000000" points="302.0252,-166.5001 312.0252,-163 302.0251,-159.5001 302.0252,-166.5001"/>
</g>
<!-- ResultsComponent -->
<g id="node5" class="node">
<title>ResultsComponent</title>
<polygon fill="#ffffb3" stroke="#000000" points="146.0548,-122 23.9452,-122 23.9452,-86 146.0548,-86 146.0548,-122"/>
<text text-anchor="middle" x="85" y="-99.8" font-family="Times,serif" font-size="14.00" fill="#000000">ResultsComponent</text>
</g>
<!-- ResultsComponent&#45;&gt;AppModule -->
<g id="edge5" class="edge">
<title>ResultsComponent&#45;&gt;AppModule</title>
<path fill="none" stroke="#000000" d="M85,-122.2843C85,-143.3211 85,-175 85,-175 85,-175 302.2639,-175 302.2639,-175"/>
<polygon fill="#000000" stroke="#000000" points="302.2639,-178.5001 312.2639,-175 302.2639,-171.5001 302.2639,-178.5001"/>
</g>
<!-- AppComponent  -->
<g id="node7" class="node">
<title>AppComponent </title>
<polygon fill="#80b1d3" stroke="#000000" points="408.439,-252 299.561,-252 299.561,-216 408.439,-216 408.439,-252"/>
<text text-anchor="middle" x="354" y="-229.8" font-family="Times,serif" font-size="14.00" fill="#000000">AppComponent </text>
</g>
<!-- AppModule&#45;&gt;AppComponent  -->
<g id="edge6" class="edge">
<title>AppModule&#45;&gt;AppComponent </title>
<path fill="none" stroke="#000000" stroke-dasharray="1,5" d="M354,-187.1061C354,-187.1061 354,-205.991 354,-205.991"/>
<polygon fill="#000000" stroke="#000000" points="350.5001,-205.9909 354,-215.991 357.5001,-205.991 350.5001,-205.9909"/>
</g>
</g>
</svg>
